<?xml version="1.0" encoding="utf-8"?>
<!-- Svg Vector Icons : http://www.onlinewebfonts.com/icon -->
<!DOCTYPE svg PUBLIC "-//W3C//DTD SVG 1.1//EN" "http://www.w3.org/Graphics/SVG/1.1/DTD/svg11.dtd">
<svg version="1.1" xmlns="http://www.w3.org/2000/svg" xmlns:xlink="http://www.w3.org/1999/xlink" x="0px" y="0px" viewBox="0 0 256 256" enable-background="new 0 0 256 256" xml:space="preserve">
<metadata> Svg Vector Icons : http://www.onlinewebfonts.com/icon </metadata>
<g><g><path fill="rgb(103,113,116)" d="M128,10c-31.5,0-61.1,12.3-83.4,34.6C22.3,66.9,10,96.5,10,128c0,31.5,12.3,61.1,34.6,83.4C66.8,233.7,96.5,246,128,246c31.5,0,61.2-12.3,83.4-34.6c22.3-22.3,34.6-51.9,34.6-83.4c0-31.5-12.3-61.1-34.6-83.4C189.1,22.3,159.5,10,128,10 M201,201c-19.5,19.5-45.4,30.2-73,30.2c-27.6,0-53.5-10.7-73-30.2c-19.5-19.5-30.2-45.4-30.2-73c0-27.6,10.7-53.5,30.2-73c19.5-19.5,45.4-30.2,73-30.2c27.6,0,53.5,10.7,73,30.2c19.5,19.5,30.2,45.4,30.2,73C231.2,155.6,220.5,181.5,201,201"/><path fill="rgb(103,113,116)" d="M182.5,143.3l-47.2-20.2V46.9c0-4.1-3.3-7.4-7.4-7.4c-4.1,0-7.4,3.3-7.4,7.4V128c0,2.9,1.8,5.6,4.5,6.8l51.6,22.1c0.9,0.4,1.9,0.6,2.9,0.6c2.9,0,5.6-1.7,6.8-4.5C188,149.3,186.3,145,182.5,143.3"/><path fill="rgb(103,113,116)" d="M54.2,120.6h-7.4c-4.1,0-7.4,3.3-7.4,7.4c0,4.1,3.3,7.4,7.4,7.4h7.4c4.1,0,7.4-3.3,7.4-7.4C61.6,123.9,58.3,120.6,54.2,120.6"/><path fill="rgb(103,113,116)" d="M194.4,128c0,4.1,3.3,7.4,7.4,7.4h7.4c4.1,0,7.4-3.3,7.4-7.4c0-4.1-3.3-7.4-7.4-7.4h-7.4C197.7,120.6,194.4,123.9,194.4,128"/><path fill="rgb(103,113,116)" d="M128,194.4c-4.1,0-7.4,3.3-7.4,7.4v7.4c0,4,3.3,7.4,7.4,7.4c4.1,0,7.4-3.3,7.4-7.4v-7.4C135.4,197.7,132.1,194.4,128,194.4"/></g></g>
</svg>